<svg width="512" height="256" viewBox="0 0 512 256" fill="none" xmlns="http://www.w3.org/2000/svg">
<path d="M191.418 166.808V115.352H196.154V119.896L196.602 120.536V148.76L196.538 149.464L196.602 155.352V166.808H191.418ZM203.514 151.512C201.21 151.512 199.258 151.235 197.658 150.68C196.058 150.125 195.066 149.677 194.682 149.336L196.602 145.88C197.178 146.392 198.063 146.819 199.258 147.16C200.474 147.501 202.042 147.672 203.962 147.672C206.244 147.672 208.292 147.085 210.106 145.912C211.919 144.739 213.348 143.043 214.394 140.824C215.46 138.605 216.015 135.917 216.058 132.76C216.1 128.109 215.215 124.653 213.402 122.392C211.588 120.131 209.082 119 205.882 119C203.812 119 201.967 119.416 200.346 120.248C198.724 121.08 197.476 121.88 196.602 122.648L195.77 119.96C196.282 119.427 197.018 118.765 197.978 117.976C198.938 117.165 200.175 116.451 201.69 115.832C203.226 115.213 205.092 114.904 207.29 114.904C209.722 114.904 212.004 115.491 214.138 116.664C216.292 117.837 218.031 119.693 219.354 122.232C220.698 124.749 221.37 128.024 221.37 132.056C221.37 135.832 220.623 139.181 219.13 142.104C217.658 145.027 215.578 147.331 212.89 149.016C210.223 150.68 207.098 151.512 203.514 151.512ZM252.882 151V146.072L252.626 145.944V119.704L252.818 119.576L252.626 113.944V98.968H257.682V151H252.882ZM241.874 151.512C239.442 151.512 237.148 150.925 234.994 149.752C232.86 148.557 231.122 146.701 229.778 144.184C228.455 141.645 227.794 138.371 227.794 134.36C227.794 130.563 228.53 127.203 230.002 124.28C231.495 121.357 233.575 119.064 236.242 117.4C238.93 115.736 242.066 114.904 245.65 114.904C247.954 114.904 249.927 115.171 251.57 115.704C253.212 116.237 254.226 116.696 254.61 117.08L252.69 120.472C252.114 119.96 251.196 119.533 249.938 119.192C248.7 118.851 247.1 118.68 245.138 118.68C242.876 118.68 240.839 119.267 239.026 120.44C237.234 121.613 235.804 123.32 234.738 125.56C233.692 127.779 233.148 130.477 233.106 133.656C233.042 138.285 233.916 141.741 235.73 144.024C237.564 146.285 240.082 147.416 243.282 147.416C245.372 147.416 247.25 146.989 248.914 146.136C250.578 145.283 251.836 144.493 252.69 143.768L253.522 146.456C253.01 146.968 252.263 147.629 251.282 148.44C250.3 149.229 249.031 149.944 247.474 150.584C245.938 151.203 244.071 151.512 241.874 151.512ZM271.856 151V119.32H265.712V116.44L271.856 115.352V112.472C271.856 109.827 272.218 107.608 272.944 105.816C273.669 104.024 274.629 102.595 275.824 101.528C277.018 100.44 278.33 99.6613 279.76 99.192C281.21 98.7013 282.65 98.456 284.08 98.456C285.04 98.456 285.904 98.5307 286.672 98.68C287.461 98.8293 288.026 98.968 288.368 99.096V103.256C287.792 103.064 287.13 102.915 286.384 102.808C285.637 102.68 284.634 102.616 283.376 102.616C281.498 102.616 279.973 103.363 278.8 104.856C277.626 106.328 277.04 108.504 277.04 111.384V115.352H286.512V119.32H277.04V151H271.856Z" fill="#6C6C6C"/>
<path d="M293.336 151V115.384H302.2L302.36 119.384C303.17 118.701 304.205 118.019 305.464 117.336C306.722 116.632 308.109 116.045 309.624 115.576C311.16 115.107 312.706 114.861 314.264 114.84C317.976 114.755 320.706 115.747 322.456 117.816C324.205 119.864 325.08 123.469 325.08 128.632V151H315.288V130.008C315.288 127.235 314.925 125.293 314.2 124.184C313.474 123.075 312.056 122.563 309.944 122.648C309.304 122.669 308.578 122.787 307.768 123C306.978 123.192 306.168 123.491 305.336 123.896C304.525 124.28 303.768 124.76 303.064 125.336V151H293.336ZM342.863 151.512C340.601 151.512 338.617 151.053 336.911 150.136C335.204 149.219 333.871 147.939 332.911 146.296C331.972 144.653 331.503 142.744 331.503 140.568C331.503 138.392 332.089 136.525 333.263 134.968C334.457 133.411 336.068 132.195 338.095 131.32C339.481 130.744 340.996 130.296 342.639 129.976C344.303 129.656 345.956 129.432 347.599 129.304C349.263 129.176 350.809 129.112 352.239 129.112L353.871 131.128L352.239 134.264C351.471 134.264 350.607 134.317 349.647 134.424C348.687 134.531 347.759 134.691 346.863 134.904C345.988 135.096 345.252 135.32 344.655 135.576C343.823 135.96 343.076 136.472 342.415 137.112C341.775 137.752 341.455 138.733 341.455 140.056C341.455 141.784 341.935 143.064 342.895 143.896C343.855 144.707 345.092 145.112 346.607 145.112C347.396 145.112 348.175 145.005 348.943 144.792C349.732 144.579 350.425 144.333 351.023 144.056C351.62 143.757 352.025 143.48 352.239 143.224L353.935 145.24L352.751 147.992C351.791 148.845 350.468 149.645 348.783 150.392C347.119 151.139 345.145 151.512 342.863 151.512ZM361.999 151H352.751V145.688H352.239V126.488C352.239 124.675 351.759 123.491 350.799 122.936C349.839 122.36 348.463 122.072 346.671 122.072C345.327 122.072 343.919 122.189 342.447 122.424C340.996 122.659 339.62 122.968 338.319 123.352C337.017 123.736 335.929 124.152 335.055 124.6L332.943 118.456C333.668 118.029 334.799 117.528 336.335 116.952C337.871 116.376 339.631 115.875 341.615 115.448C343.599 115 345.593 114.776 347.599 114.776C350.884 114.776 353.583 115.16 355.695 115.928C357.828 116.696 359.407 117.997 360.431 119.832C361.476 121.667 361.999 124.205 361.999 127.448V151ZM382.338 151.512C379.863 151.512 377.858 151.149 376.322 150.424C374.807 149.677 373.655 148.621 372.866 147.256C372.076 145.891 371.543 144.28 371.266 142.424C370.988 140.568 370.85 138.52 370.85 136.28V115.352H380.578V136.408C380.578 138.648 380.77 140.323 381.154 141.432C381.538 142.541 382.124 143.277 382.914 143.64C383.724 144.003 384.759 144.184 386.018 144.184C386.786 144.184 387.575 144.077 388.386 143.864C389.196 143.651 389.943 143.395 390.626 143.096C391.308 142.776 391.831 142.477 392.194 142.2V115.352H401.954V151.512H395.746C394.914 151.512 394.263 151.384 393.794 151.128C393.346 150.872 393.122 150.275 393.122 149.336V146.968L393.314 147.896C392.439 148.579 391.372 149.197 390.114 149.752C388.876 150.285 387.575 150.712 386.21 151.032C384.844 151.352 383.554 151.512 382.338 151.512ZM422.745 151.512C420.569 151.512 418.766 151.16 417.337 150.456C415.929 149.731 414.873 148.589 414.169 147.032C413.486 145.475 413.145 143.416 413.145 140.856V122.04H408.825V116.824C410.403 116.376 411.662 115.949 412.601 115.544C413.561 115.139 414.254 114.435 414.681 113.432C414.894 112.941 415.118 112.365 415.353 111.704C415.609 111.043 415.875 110.328 416.153 109.56C416.43 108.792 416.718 108.013 417.017 107.224H422.905V115.352H432.473V122.04H422.905V136.728C422.905 138.989 423.022 140.643 423.257 141.688C423.491 142.712 423.897 143.373 424.473 143.672C425.049 143.949 425.881 144.088 426.969 144.088C427.523 144.088 428.163 144.024 428.889 143.896C429.614 143.747 430.307 143.565 430.969 143.352C431.63 143.139 432.142 142.915 432.505 142.68L433.785 148.152C433.209 148.664 432.345 149.187 431.193 149.72C430.041 150.232 428.729 150.659 427.257 151C425.785 151.341 424.281 151.512 422.745 151.512Z" fill="#DB2424"/>
<path d="M59 63H140.289L148.486 70.4869L156 77.9738V193H59V63Z" fill="#DB2424"/>
<path d="M59 106H111V150H59V106Z" fill="#F99016"/>
<path d="M59 149H156V193H59V149Z" fill="#1055BF"/>
</svg>
