<svg width="565" height="130" viewBox="0 0 565 130" fill="none" xmlns="http://www.w3.org/2000/svg">
<g clip-path="url(#clip0_621_2)">
<path d="M137.827 131.17V42.73H145.967V50.54L146.737 51.64V100.15L146.627 101.36L146.737 111.48V131.17H137.827ZM158.617 104.88C154.657 104.88 151.302 104.403 148.552 103.45C145.802 102.497 144.097 101.727 143.437 101.14L146.737 95.2C147.727 96.08 149.249 96.8133 151.302 97.4C153.392 97.9867 156.087 98.28 159.387 98.28C163.311 98.28 166.831 97.2717 169.947 95.255C173.064 93.2383 175.521 90.3233 177.317 86.51C179.151 82.6967 180.104 78.0767 180.177 72.65C180.251 64.6567 178.729 58.7167 175.612 54.83C172.496 50.9433 168.187 49 162.687 49C159.131 49 155.959 49.715 153.172 51.145C150.386 52.575 148.241 53.95 146.737 55.27L145.307 50.65C146.187 49.7333 147.452 48.5967 149.102 47.24C150.752 45.8467 152.879 44.6183 155.482 43.555C158.122 42.4917 161.331 41.96 165.107 41.96C169.287 41.96 173.211 42.9683 176.877 44.985C180.581 47.0017 183.569 50.1917 185.842 54.555C188.152 58.8817 189.307 64.51 189.307 71.44C189.307 77.93 188.024 83.6867 185.457 88.71C182.927 93.7333 179.352 97.6933 174.732 100.59C170.149 103.45 164.777 104.88 158.617 104.88ZM243.469 104V95.53L243.029 95.31V50.21L243.359 49.99L243.029 40.31V14.57H251.719V104H243.469ZM224.549 104.88C220.369 104.88 216.427 103.872 212.724 101.855C209.057 99.8017 206.069 96.6117 203.759 92.285C201.485 87.9217 200.349 82.2933 200.349 75.4C200.349 68.8733 201.614 63.0983 204.144 58.075C206.71 53.0517 210.285 49.11 214.869 46.25C219.489 43.39 224.879 41.96 231.039 41.96C234.999 41.96 238.39 42.4183 241.214 43.335C244.037 44.2517 245.779 45.04 246.439 45.7L243.139 51.53C242.149 50.65 240.572 49.9167 238.409 49.33C236.282 48.7433 233.532 48.45 230.159 48.45C226.272 48.45 222.77 49.4583 219.654 51.475C216.574 53.4917 214.117 56.425 212.284 60.275C210.487 64.0883 209.552 68.7267 209.479 74.19C209.369 82.1467 210.872 88.0867 213.989 92.01C217.142 95.8967 221.469 97.84 226.969 97.84C230.562 97.84 233.789 97.1067 236.649 95.64C239.509 94.1733 241.672 92.8167 243.139 91.57L244.569 96.19C243.689 97.07 242.405 98.2067 240.719 99.6C239.032 100.957 236.85 102.185 234.174 103.285C231.534 104.348 228.325 104.88 224.549 104.88ZM276.08 104V49.55H265.52V44.6L276.08 42.73V37.78C276.08 33.2333 276.704 29.42 277.95 26.34C279.197 23.26 280.847 20.8033 282.9 18.97C284.954 17.1 287.209 15.7617 289.665 14.955C292.159 14.1117 294.634 13.69 297.09 13.69C298.74 13.69 300.225 13.8183 301.545 14.075C302.902 14.3317 303.874 14.57 304.46 14.79V21.94C303.47 21.61 302.334 21.3533 301.05 21.17C299.767 20.95 298.044 20.84 295.88 20.84C292.654 20.84 290.032 22.1233 288.015 24.69C285.999 27.22 284.99 30.96 284.99 35.91V42.73H301.27V49.55H284.99V104H276.08Z" fill="#6C6C6C"/>
<path d="M312.999 104V42.785H328.234L328.509 49.66C329.902 48.4867 331.681 47.3133 333.844 46.14C336.007 44.93 338.391 43.9217 340.994 43.115C343.634 42.3083 346.292 41.8867 348.969 41.85C355.349 41.7033 360.042 43.4083 363.049 46.965C366.056 50.485 367.559 56.6817 367.559 65.555V104H350.729V67.92C350.729 63.1533 350.106 59.8167 348.859 57.91C347.612 56.0033 345.174 55.1233 341.544 55.27C340.444 55.3067 339.197 55.5083 337.804 55.875C336.447 56.205 335.054 56.7183 333.624 57.415C332.231 58.075 330.929 58.9 329.719 59.89V104H312.999ZM398.123 104.88C394.237 104.88 390.827 104.092 387.893 102.515C384.96 100.938 382.668 98.7383 381.018 95.915C379.405 93.0917 378.598 89.81 378.598 86.07C378.598 82.33 379.607 79.1217 381.623 76.445C383.677 73.7683 386.445 71.6783 389.928 70.175C392.312 69.185 394.915 68.415 397.738 67.865C400.598 67.315 403.44 66.93 406.263 66.71C409.123 66.49 411.782 66.38 414.238 66.38L417.043 69.845L414.238 75.235C412.918 75.235 411.433 75.3267 409.783 75.51C408.133 75.6933 406.538 75.9683 404.998 76.335C403.495 76.665 402.23 77.05 401.203 77.49C399.773 78.15 398.49 79.03 397.353 80.13C396.253 81.23 395.703 82.9167 395.703 85.19C395.703 88.16 396.528 90.36 398.178 91.79C399.828 93.1833 401.955 93.88 404.558 93.88C405.915 93.88 407.253 93.6967 408.573 93.33C409.93 92.9633 411.122 92.5417 412.148 92.065C413.175 91.5517 413.872 91.075 414.238 90.635L417.153 94.1L415.118 98.83C413.468 100.297 411.195 101.672 408.298 102.955C405.438 104.238 402.047 104.88 398.123 104.88ZM431.013 104H415.118V94.87H414.238V61.87C414.238 58.7533 413.413 56.7183 411.763 55.765C410.113 54.775 407.748 54.28 404.668 54.28C402.358 54.28 399.938 54.4817 397.408 54.885C394.915 55.2883 392.55 55.82 390.313 56.48C388.077 57.14 386.207 57.855 384.703 58.625L381.073 48.065C382.32 47.3317 384.263 46.47 386.903 45.48C389.543 44.49 392.568 43.6283 395.978 42.895C399.388 42.125 402.817 41.74 406.263 41.74C411.91 41.74 416.548 42.4 420.178 43.72C423.845 45.04 426.558 47.2767 428.318 50.43C430.115 53.5833 431.013 57.9467 431.013 63.52V104ZM465.971 104.88C461.718 104.88 458.271 104.257 455.631 103.01C453.028 101.727 451.048 99.9117 449.691 97.565C448.334 95.2183 447.418 92.45 446.941 89.26C446.464 86.07 446.226 82.55 446.226 78.7V42.73H462.946V78.92C462.946 82.77 463.276 85.6483 463.936 87.555C464.596 89.4617 465.604 90.7267 466.961 91.35C468.354 91.9733 470.133 92.285 472.296 92.285C473.616 92.285 474.973 92.1017 476.366 91.735C477.759 91.3683 479.043 90.9283 480.216 90.415C481.389 89.865 482.288 89.3517 482.911 88.875V42.73H499.686V104.88H489.016C487.586 104.88 486.468 104.66 485.661 104.22C484.891 103.78 484.506 102.753 484.506 101.14V97.07L484.836 98.665C483.333 99.8383 481.499 100.902 479.336 101.855C477.209 102.772 474.973 103.505 472.626 104.055C470.279 104.605 468.061 104.88 465.971 104.88ZM535.421 104.88C531.681 104.88 528.582 104.275 526.126 103.065C523.706 101.818 521.891 99.8567 520.681 97.18C519.507 94.5033 518.921 90.965 518.921 86.565V54.225H511.496V45.26C514.209 44.49 516.372 43.7567 517.986 43.06C519.636 42.3633 520.827 41.1533 521.561 39.43C521.927 38.5867 522.312 37.5967 522.716 36.46C523.156 35.3233 523.614 34.095 524.091 32.775C524.567 31.455 525.062 30.1167 525.576 28.76H535.696V42.73H552.141V54.225H535.696V79.47C535.696 83.3567 535.897 86.1983 536.301 87.995C536.704 89.755 537.401 90.8917 538.391 91.405C539.381 91.8817 540.811 92.12 542.681 92.12C543.634 92.12 544.734 92.01 545.981 91.79C547.227 91.5333 548.419 91.2217 549.556 90.855C550.692 90.4883 551.572 90.1033 552.196 89.7L554.396 99.105C553.406 99.985 551.921 100.883 549.941 101.8C547.961 102.68 545.706 103.413 543.176 104C540.646 104.587 538.061 104.88 535.421 104.88Z" fill="#DB2424"/>
<path d="M0 0H81.2887L89.4859 7.48691L97 14.9738V130H0V0Z" fill="#DB2424"/>
<path d="M0 43H52V87H0V43Z" fill="#F99016"/>
<path d="M0 86H97V130H0V86Z" fill="#1055BF"/>
</g>
<defs>
<clipPath id="clip0_621_2">
<rect width="565" height="130" fill="white"/>
</clipPath>
</defs>
</svg>
